<svg aria-hidden="true" style="position: absolute; width: 0; height: 0; overflow: hidden;" version="1.1" xmlns="http://www.w3.org/2000/svg" xmlns:xlink="http://www.w3.org/1999/xlink">
<defs>
<symbol id="icon-user-circle" viewBox="0 0 28 28">
<path d="M23.797 20.922c-0.406-2.922-1.594-5.516-4.25-5.875-1.375 1.5-3.359 2.453-5.547 2.453s-4.172-0.953-5.547-2.453c-2.656 0.359-3.844 2.953-4.25 5.875 2.172 3.063 5.75 5.078 9.797 5.078s7.625-2.016 9.797-5.078zM20 10c0-3.313-2.688-6-6-6s-6 2.688-6 6 2.688 6 6 6 6-2.688 6-6zM28 14c0 7.703-6.25 14-14 14-7.734 0-14-6.281-14-14 0-7.734 6.266-14 14-14s14 6.266 14 14z"></path>
</symbol>
<symbol id="icon-icons8-google" viewBox="0 0 32 32">
<path fill="#ffc107" style="fill: var(--color1, #ffc107)" d="M29.074 13.389h-1.074v-0.055h-12v5.333h7.535c-1.099 3.105-4.053 5.333-7.535 5.333-4.418 0-8-3.582-8-8s3.582-8 8-8c2.039 0 3.895 0.769 5.307 2.026l3.771-3.771c-2.381-2.219-5.567-3.588-9.079-3.588-7.363 0-13.333 5.97-13.333 13.333s5.97 13.333 13.333 13.333c7.363 0 13.333-5.97 13.333-13.333 0-0.894-0.092-1.767-0.259-2.611z"></path>
<path fill="#ff3d00" style="fill: var(--color2, #ff3d00)" d="M4.204 9.794l4.381 3.213c1.185-2.935 4.056-5.007 7.415-5.007 2.039 0 3.895 0.769 5.307 2.026l3.771-3.771c-2.381-2.219-5.567-3.588-9.079-3.588-5.121 0-9.563 2.891-11.796 7.127z"></path>
<path fill="#4caf50" style="fill: var(--color3, #4caf50)" d="M16 29.333c3.444 0 6.573-1.318 8.939-3.461l-4.127-3.492c-1.339 1.014-3.003 1.62-4.813 1.62-3.468 0-6.413-2.211-7.522-5.297l-4.348 3.35c2.207 4.318 6.688 7.281 11.87 7.281z"></path>
<path fill="#1976d2" style="fill: var(--color4, #1976d2)" d="M29.074 13.389h-1.074v-0.055h-12v5.333h7.535c-0.528 1.491-1.487 2.777-2.725 3.714 0.001-0.001 0.001-0.001 0.002-0.001l4.127 3.492c-0.292 0.265 4.394-3.205 4.394-9.871 0-0.894-0.092-1.767-0.259-2.611z"></path>
</symbol>
<symbol id="icon-search" viewBox="0 0 32 32">
<path d="M13.867 3.2c-5.878 0-10.667 4.788-10.667 10.667s4.788 10.667 10.667 10.667c2.556 0 4.904-0.908 6.744-2.415l6.369 6.369c0.194 0.202 0.467 0.328 0.77 0.328 0.589 0 1.067-0.478 1.067-1.067 0-0.302-0.126-0.575-0.328-0.769l-6.369-6.369c1.507-1.84 2.415-4.187 2.415-6.744 0-5.878-4.788-10.667-10.667-10.667zM13.867 5.333c4.725 0 8.533 3.808 8.533 8.533s-3.808 8.533-8.533 8.533c-4.725 0-8.533-3.808-8.533-8.533s3.808-8.533 8.533-8.533z"></path>
</symbol>
<symbol id="icon-sound" viewBox="0 0 32 32">
<path d="M26.998 14.003c0-4.962-4.037-9-9-8.999v-0.004c-0.275-0.001-0.498-0.225-0.498-0.5s0.223-0.5 0.5-0.5c0.010 0 0.018 0.004 0.025 0.006 5.508 0.013 9.967 4.477 9.973 9.986 0 0.003 0.002 0.005 0.002 0.008 0 0.276-0.225 0.499-0.5 0.499s-0.498-0.222-0.5-0.496h-0.002zM9.121 0.878c-0.573-0.574-1.341-0.878-2.122-0.878-0.386 0-0.775 0.074-1.146 0.228-1.122 0.464-1.853 1.558-1.853 2.772l-0.001 13.757-3.12 3.122c-1.172 1.17-1.172 3.070 0 4.242l7 7c0.586 0.586 1.353 0.879 2.121 0.879s1.535-0.293 2.121-0.879l3.121-3.121h13.756c1.215 0 2.309-0.73 2.771-1.852 0.465-1.121 0.209-2.412-0.65-3.27l-21.998-22zM13.828 26.586l-3.121 3.121c-0.255 0.254-0.553 0.293-0.707 0.293s-0.452-0.039-0.707-0.293l-7-7c-0.255-0.256-0.293-0.553-0.293-0.707s0.038-0.453 0.293-0.707l3.12-3.121c0.009-0.010 0.012-0.021 0.021-0.031l8.425 8.426c-0.009 0.007-0.022 0.009-0.031 0.019zM15.242 26c-0.155 0-0.299 0.055-0.447 0.088l-8.885-8.885c0.034-0.148 0.089-0.292 0.089-0.446l0.001-12.046 21.287 21.289h-12.045zM29.922 25.383c-0.154 0.375-0.518 0.617-0.924 0.617h-0.297l-22.701-22.703v-0.297c0-0.406 0.242-0.769 0.617-0.924 0.123-0.051 0.251-0.076 0.382-0.076 0.268 0 0.519 0.104 0.707 0.292l21.999 22.001c0.287 0.287 0.373 0.715 0.217 1.090zM17.998 2c-0.551-0.001-0.998-0.449-0.998-1 0-0.553 0.447-1 1-1 0.010 0 0.018 0.004 0.025 0.005 7.717 0.014 13.967 6.269 13.973 13.987 0 0.003 0.002 0.005 0.002 0.008 0 0.553-0.447 1-1 1-0.551 0-0.998-0.446-1-0.996h-0.002c0-6.617-5.383-12-12-12v-0.004z"></path>
</symbol>
<symbol id="icon-settings" viewBox="0 0 32 32">
<path d="M30.391 12.68l-3.064-0.614c-0.154-0.443-0.336-0.873-0.537-1.289l1.736-2.604c0.529-0.793 0.424-1.85-0.25-2.523l-1.924-1.924c-0.387-0.387-0.898-0.586-1.416-0.586-0.383 0-0.77 0.11-1.107 0.336l-2.604 1.735c-0.418-0.202-0.848-0.382-1.291-0.536l-0.614-3.065c-0.186-0.936-1.008-1.608-1.961-1.608h-2.72c-0.953 0-1.774 0.673-1.961 1.608l-0.614 3.065c-0.443 0.154-0.873 0.335-1.289 0.536l-2.603-1.735c-0.339-0.226-0.725-0.336-1.109-0.336-0.517 0-1.028 0.199-1.415 0.586l-1.923 1.924c-0.674 0.674-0.779 1.73-0.25 2.523l1.735 2.604c-0.202 0.417-0.382 0.847-0.536 1.29l-3.066 0.613c-0.935 0.187-1.608 1.008-1.608 1.961v2.72c0 0.953 0.673 1.775 1.608 1.961l3.065 0.615c0.154 0.443 0.335 0.873 0.536 1.289l-1.734 2.604c-0.529 0.793-0.424 1.85 0.25 2.523l1.924 1.924c0.387 0.387 0.898 0.586 1.415 0.586 0.384 0 0.771-0.111 1.108-0.336l2.604-1.736c0.417 0.203 0.847 0.383 1.29 0.537l0.613 3.064c0.187 0.936 1.008 1.609 1.961 1.609h2.72c0.953 0 1.775-0.674 1.961-1.609l0.615-3.064c0.443-0.154 0.873-0.336 1.289-0.537l2.604 1.736c0.338 0.225 0.725 0.336 1.107 0.336 0.518 0 1.029-0.199 1.416-0.586l1.924-1.924c0.674-0.674 0.779-1.73 0.25-2.523l-1.736-2.604c0.203-0.418 0.383-0.848 0.537-1.291l3.064-0.613c0.935-0.185 1.609-1.008 1.609-1.961v-2.72c0-0.953-0.674-1.774-1.609-1.961zM26.934 17.975c-0.695 0.139-1.264 0.635-1.496 1.305-0.129 0.369-0.279 0.727-0.447 1.074-0.311 0.639-0.258 1.393 0.135 1.982l1.736 2.604-1.924 1.924-2.604-1.736c-0.334-0.223-0.721-0.336-1.109-0.336-0.297 0-0.596 0.066-0.871 0.199-0.348 0.168-0.705 0.32-1.076 0.449-0.668 0.232-1.164 0.801-1.303 1.496l-0.615 3.066h-2.72l-0.613-3.066c-0.139-0.695-0.635-1.264-1.304-1.496-0.369-0.129-0.728-0.279-1.075-0.447-0.276-0.135-0.574-0.201-0.872-0.201-0.389 0-0.775 0.113-1.109 0.336l-2.604 1.736-1.924-1.924 1.735-2.604c0.393-0.59 0.444-1.344 0.137-1.98-0.168-0.348-0.319-0.705-0.448-1.076-0.232-0.668-0.802-1.164-1.496-1.303l-3.065-0.615-0.002-2.721 3.066-0.613c0.694-0.139 1.264-0.635 1.496-1.304 0.129-0.369 0.278-0.728 0.447-1.075 0.31-0.638 0.258-1.392-0.136-1.981l-1.734-2.604 1.923-1.924 2.604 1.735c0.334 0.223 0.721 0.336 1.109 0.336 0.297 0 0.595-0.066 0.871-0.199 0.347-0.168 0.705-0.319 1.075-0.448 0.669-0.232 1.165-0.802 1.304-1.496l0.614-3.065 2.72-0.001 0.613 3.066c0.139 0.694 0.635 1.264 1.305 1.496 0.369 0.129 0.727 0.278 1.074 0.447 0.277 0.134 0.574 0.2 0.873 0.2 0.389 0 0.775-0.113 1.109-0.336l2.604-1.735 1.924 1.924-1.736 2.604c-0.393 0.59-0.443 1.343-0.137 1.98 0.168 0.347 0.32 0.705 0.449 1.075 0.232 0.669 0.801 1.165 1.496 1.304l3.064 0.614 0.003 2.72-3.066 0.614zM16 9.001c-3.865 0-7 3.135-7 7 0 3.866 3.135 7 7 7s7-3.135 7-7c0-3.865-3.135-7-7-7zM16 22.127c-3.382 0-6.125-2.744-6.125-6.125s2.743-6.125 6.125-6.125c3.381 0 6.125 2.743 6.125 6.125 0 3.381-2.744 6.125-6.125 6.125zM16 12.001c-2.21 0-4 1.79-4 4s1.79 4 4 4c2.209 0 4-1.791 4-4s-1.791-4-4-4zM16 19.002c-1.656 0-3-1.344-3-3s1.344-3 3-3 3 1.344 3 3c0 1.656-1.344 3-3 3z"></path>
</symbol>
<symbol id="icon-eye" viewBox="0 0 32 32">
<path d="M31.965 15.776c-0.010-0.042-0.004-0.087-0.020-0.128-0.006-0.017-0.021-0.026-0.027-0.042-0.010-0.024-0.008-0.051-0.021-0.074-2.9-5.551-9.213-9.528-15.873-9.528-6.661 0-12.973 3.971-15.875 9.521-0.013 0.023-0.011 0.050-0.021 0.074-0.007 0.016-0.021 0.025-0.027 0.042-0.016 0.041-0.010 0.086-0.020 0.128-0.018 0.075-0.035 0.147-0.035 0.224s0.018 0.148 0.035 0.224c0.010 0.042 0.004 0.087 0.020 0.128 0.006 0.017 0.021 0.026 0.027 0.042 0.010 0.024 0.008 0.051 0.021 0.074 2.901 5.551 9.214 9.528 15.875 9.528 6.66 0 12.973-3.971 15.873-9.521 0.014-0.023 0.012-0.050 0.021-0.074 0.006-0.016 0.021-0.025 0.027-0.042 0.016-0.041 0.010-0.086 0.020-0.128 0.017-0.076 0.035-0.148 0.035-0.224s-0.018-0.149-0.035-0.224zM16.023 23.988c-5.615 0-11.112-3.191-13.851-7.995 2.754-4.81 8.243-7.99 13.851-7.99 5.613 0 11.111 3.192 13.85 7.995-2.754 4.811-8.242 7.99-13.85 7.99zM16.023 11.999c0.276 0 0.498 0.223 0.498 0.5 0 0.275-0.223 0.499-0.498 0.499v0.001c-1.654 0-2.999 1.345-2.999 2.997 0 0.276-0.224 0.5-0.499 0.5s-0.5-0.224-0.5-0.5c0-2.205 1.787-3.992 3.992-3.996 0.002 0 0.004-0.001 0.006-0.001zM16 9c-3.867 0-7 3.134-7 7s3.134 7 7 7c3.865 0 7-3.135 7-7 0-3.867-3.135-7-7-7zM16 22c-3.309 0-6-2.691-6-6s2.691-6 6-6c3.309 0 6 2.691 6 6s-2.691 6-6 6z"></path>
</symbol>
<symbol id="icon-checkmark" viewBox="0 0 32 32">
<path d="M21.82 13.030l-1.002-1.002c-0.185-0.185-0.484-0.185-0.668 0l-6.014 6.013-2.859-2.882c-0.186-0.185-0.484-0.185-0.67 0l-1.002 1.003c-0.185 0.185-0.185 0.484 0 0.668l4.193 4.223c0.185 0.184 0.484 0.184 0.668 0l7.354-7.354c0.186-0.185 0.186-0.484 0-0.669zM16 3c-7.18 0-13 5.82-13 13s5.82 13 13 13 13-5.82 13-13-5.82-13-13-13zM16 26c-5.522 0-10-4.478-10-10 0-5.523 4.478-10 10-10 5.523 0 10 4.477 10 10 0 5.522-4.477 10-10 10z"></path>
</symbol>
<symbol id="icon-cancel" viewBox="0 0 32 32">
<path d="M16 29c-7.18 0-13-5.82-13-13s5.82-13 13-13 13 5.82 13 13-5.82 13-13 13zM16 6c-5.522 0-10 4.478-10 10s4.478 10 10 10c5.523 0 10-4.478 10-10s-4.477-10-10-10zM20.537 19.535l-1.014 1.014c-0.186 0.186-0.488 0.186-0.675 0l-2.87-2.87-2.87 2.87c-0.187 0.186-0.488 0.186-0.675 0l-1.014-1.014c-0.186-0.186-0.186-0.488 0-0.675l2.871-2.869-2.871-2.87c-0.186-0.187-0.186-0.489 0-0.676l1.014-1.013c0.187-0.187 0.488-0.187 0.675 0l2.87 2.87 2.87-2.87c0.187-0.187 0.489-0.187 0.675 0l1.014 1.013c0.186 0.187 0.186 0.489 0 0.676l-2.871 2.87 2.871 2.869c0.186 0.187 0.186 0.49 0 0.675z"></path>
</symbol>
<symbol id="icon-notice" viewBox="0 0 32 32">
<path d="M15.5 3c-7.456 0-13.5 6.044-13.5 13.5s6.044 13.5 13.5 13.5 13.5-6.044 13.5-13.5-6.044-13.5-13.5-13.5zM15.5 27c-5.799 0-10.5-4.701-10.5-10.5s4.701-10.5 10.5-10.5 10.5 4.701 10.5 10.5-4.701 10.5-10.5 10.5zM15.5 10c-0.828 0-1.5 0.671-1.5 1.5v5.062c0 0.828 0.672 1.5 1.5 1.5s1.5-0.672 1.5-1.5v-5.062c0-0.829-0.672-1.5-1.5-1.5zM15.5 20c-0.828 0-1.5 0.672-1.5 1.5s0.672 1.5 1.5 1.5 1.5-0.672 1.5-1.5-0.672-1.5-1.5-1.5z"></path>
</symbol>
<symbol id="icon-trashcan" viewBox="0 0 32 32">
<path d="M8 26c0 1.656 1.343 3 3 3h10c1.656 0 3-1.344 3-3l2-16h-20l2 16zM19 13h2v13h-2v-13zM15 13h2v13h-2v-13zM11 13h2v13h-2v-13zM25.5 6h-6.5c0 0-0.448-2-1-2h-4c-0.553 0-1 2-1 2h-6.5c-0.829 0-1.5 0.671-1.5 1.5s0 1.5 0 1.5h22c0 0 0-0.671 0-1.5s-0.672-1.5-1.5-1.5z"></path>
</symbol>
<symbol id="icon-chat" viewBox="0 0 42 32">
<path d="M35.652 14.023c-0.264-0.082-0.544 0.062-0.628 0.325-0.083 0.263 0.062 0.544 0.325 0.628 3.908 1.245 5.651 3.102 5.651 6.024 0 2.599-2.371 4.616-3.783 5.588-0.136 0.094-0.217 0.247-0.217 0.412v3.823c-0.73-0.272-2.003-0.89-3.126-2.155-0.117-0.131-0.295-0.191-0.468-0.159-0.285 0.055-0.576 0.133-0.871 0.212-0.51 0.137-1.036 0.279-1.535 0.279-2.568 0-4.366-0.552-6.204-1.903-0.224-0.164-0.535-0.115-0.699 0.107-0.164 0.223-0.116 0.535 0.106 0.699 2.027 1.49 3.996 2.097 6.797 2.097 0.631 0 1.223-0.159 1.795-0.313 0.178-0.049 0.355-0.097 0.53-0.138 1.869 1.974 3.983 2.423 4.075 2.441 0.033 0.007 0.066 0.010 0.1 0.010 0.114 0 0.227-0.039 0.316-0.113 0.117-0.095 0.184-0.237 0.184-0.387v-4.239c2.582-1.841 4-4.057 4-6.261 0-3.381-2.017-5.598-6.348-6.977zM33 13.5c0-7.696-7.018-13.5-16.323-13.5-9.352 0-16.677 5.931-16.677 13.502 0 4.539 3.211 7.791 6 9.759v6.636c0 0.17 0.086 0.327 0.228 0.42 0.083 0.053 0.177 0.080 0.272 0.080 0.069 0 0.139-0.015 0.205-0.044 0.146-0.065 3.559-1.616 6.479-4.809 1.265 0.235 2.696 0.461 3.994 0.461 9.463 0 15.822-5.026 15.822-12.505zM17.177 25.005c-1.31 0-2.799-0.251-4.083-0.496-0.173-0.031-0.351 0.028-0.468 0.159-2.050 2.312-4.459 3.781-5.626 4.414v-6.082c0-0.165-0.081-0.318-0.217-0.412-2.638-1.815-5.783-4.863-5.783-9.086 0-7.011 6.886-12.502 15.677-12.502 8.736 0 15.323 5.374 15.323 12.5 0 6.882-5.957 11.505-14.823 11.505zM16.5 11.5c-1.103 0-2 0.897-2 2s0.897 2 2 2 2-0.897 2-2-0.897-2-2-2zM16.5 14.5c-0.551 0-1-0.448-1-1s0.449-1 1-1 1 0.448 1 1-0.449 1-1 1zM23.5 11.5c-1.103 0-2 0.897-2 2s0.897 2 2 2 2-0.897 2-2-0.897-2-2-2zM23.5 14.5c-0.551 0-1-0.448-1-1s0.449-1 1-1 1 0.448 1 1-0.449 1-1 1zM9.5 11.595c-1.103 0-2 0.897-2 2s0.897 2 2 2 2-0.897 2-2-0.897-2-2-2zM9.5 14.595c-0.551 0-1-0.448-1-1s0.449-1 1-1 1 0.448 1 1-0.449 1-1 1z"></path>
</symbol>
<symbol id="icon-chevron-thin-down" viewBox="0 0 20 20">
<path d="M17.418 6.109c0.272-0.268 0.709-0.268 0.979 0s0.271 0.701 0 0.969l-7.908 7.83c-0.27 0.268-0.707 0.268-0.979 0l-7.908-7.83c-0.27-0.268-0.27-0.701 0-0.969s0.709-0.268 0.979 0l7.419 7.141 7.418-7.141z"></path>
</symbol>
<symbol id="icon-line-graph" viewBox="0 0 20 20">
<path d="M0.69 11.331l1.363 0.338 1.026-1.611-1.95-0.482c-0.488-0.121-0.981 0.174-1.102 0.66-0.121 0.483 0.175 0.973 0.663 1.095zM18.481 11.592l-4.463 4.016-5.247-4.061c-0.1-0.076-0.215-0.133-0.338-0.162l-0.698-0.174-1.027 1.611 1.1 0.273 5.697 4.408c0.166 0.127 0.362 0.189 0.559 0.189 0.219 0 0.438-0.078 0.609-0.232l5.028-4.527c0.372-0.334 0.401-0.906 0.064-1.277s-0.911-0.4-1.284-0.064zM8.684 7.18l4.887 3.129c0.413 0.264 0.961 0.154 1.24-0.246l5.027-7.242c0.286-0.412 0.183-0.977-0.231-1.26-0.414-0.285-0.979-0.182-1.265 0.23l-4.528 6.521-4.916-3.147c-0.204-0.131-0.451-0.174-0.688-0.123-0.236 0.053-0.442 0.197-0.571 0.4l-7.497 11.767c-0.27 0.422-0.144 0.983 0.28 1.25 0.15 0.096 0.319 0.141 0.486 0.141 0.301 0 0.596-0.149 0.768-0.42l7.008-11z"></path>
</symbol>
<symbol id="icon-link" viewBox="0 0 20 20">
<path d="M7.859 14.691l-0.81 0.805c-0.701 0.695-1.843 0.695-2.545 0-0.336-0.334-0.521-0.779-0.521-1.252s0.186-0.916 0.521-1.252l2.98-2.955c0.617-0.613 1.779-1.515 2.626-0.675 0.389 0.386 1.016 0.384 1.403-0.005 0.385-0.389 0.383-1.017-0.006-1.402-1.438-1.428-3.566-1.164-5.419 0.675l-2.98 2.956c-0.715 0.709-1.108 1.654-1.108 2.658 0 1.006 0.394 1.949 1.108 2.658 0.736 0.73 1.702 1.096 2.669 1.096s1.934-0.365 2.669-1.096l0.811-0.805c0.389-0.385 0.391-1.012 0.005-1.4s-1.014-0.39-1.403-0.006zM16.891 3.207c-1.547-1.534-3.709-1.617-5.139-0.197l-1.009 1.002c-0.389 0.386-0.392 1.013-0.006 1.401 0.386 0.389 1.013 0.391 1.402 0.005l1.010-1.001c0.74-0.736 1.711-0.431 2.346 0.197 0.336 0.335 0.522 0.779 0.522 1.252s-0.186 0.917-0.522 1.251l-3.18 3.154c-1.454 1.441-2.136 0.766-2.427 0.477-0.389-0.386-1.016-0.383-1.401 0.005s-0.384 1.017 0.005 1.401c0.668 0.662 1.43 0.99 2.228 0.99 0.977 0 2.010-0.492 2.993-1.467l3.18-3.153c0.712-0.71 1.107-1.654 1.107-2.658s-0.395-1.949-1.109-2.659z"></path>
</symbol>
<symbol id="icon-list" viewBox="0 0 20 20">
<path d="M14.4 9h-5.8c-0.552 0-0.6 0.447-0.6 1s0.048 1 0.6 1h5.8c0.552 0 0.6-0.447 0.6-1s-0.048-1-0.6-1zM16.4 14h-7.8c-0.552 0-0.6 0.447-0.6 1s0.048 1 0.6 1h7.8c0.552 0 0.6-0.447 0.6-1s-0.048-1-0.6-1zM8.6 6h7.8c0.552 0 0.6-0.447 0.6-1s-0.048-1-0.6-1h-7.8c-0.552 0-0.6 0.447-0.6 1s0.048 1 0.6 1zM5.4 9h-1.8c-0.552 0-0.6 0.447-0.6 1s0.048 1 0.6 1h1.8c0.552 0 0.6-0.447 0.6-1s-0.048-1-0.6-1zM5.4 14h-1.8c-0.552 0-0.6 0.447-0.6 1s0.048 1 0.6 1h1.8c0.552 0 0.6-0.447 0.6-1s-0.048-1-0.6-1zM5.4 4h-1.8c-0.552 0-0.6 0.447-0.6 1s0.048 1 0.6 1h1.8c0.552 0 0.6-0.447 0.6-1s-0.048-1-0.6-1z"></path>
</symbol>
<symbol id="icon-map" viewBox="0 0 20 20">
<path d="M19.447 3.718l-6-3c-0.281-0.141-0.613-0.141-0.895 0l-5.63 2.815-5.606-1.869c-0.306-0.102-0.64-0.051-0.901 0.138s-0.415 0.49-0.415 0.811v13.001c0 0.379 0.214 0.725 0.553 0.894l6 3c0.141 0.070 0.294 0.106 0.447 0.106s0.307-0.035 0.447-0.106l5.63-2.814 5.606 1.869c0.305 0.1 0.64 0.049 0.901-0.139s0.415-0.49 0.415-0.81v-13.002c0.001-0.379-0.213-0.725-0.552-0.894zM8 5.231l4-2v11.763l-4 2v-11.763zM2 4l4 1.333v11.661l-4-2v-10.994zM18 16.227l-4-1.334v-11.662l4 2v10.996z"></path>
</symbol>
<symbol id="icon-sound-mix" viewBox="0 0 20 20">
<path d="M5 1.6c0-0.553-0.448-0.6-1-0.6-0.553 0-1 0.047-1 0.6v8.4h2v-8.4zM3 18.4c0 0.551 0.447 0.6 1 0.6 0.552 0 1-0.049 1-0.6v-3.4h-2v3.4zM6.399 11h-4.8c-0.553 0-0.599 0.448-0.599 1v1c0 0.553 0.046 1 0.599 1h4.801c0.55 0 0.6-0.447 0.6-1v-1c0-0.552-0.050-1-0.601-1zM18.399 12h-4.801c-0.552 0-0.598 0.448-0.598 1v1c0 0.553 0.046 1 0.599 1h4.801c0.55 0 0.6-0.447 0.6-1v-1c0-0.552-0.050-1-0.601-1zM13 7c0-0.552-0.050-1-0.601-1h-4.8c-0.553 0-0.599 0.448-0.599 1v1c0 0.553 0.046 1 0.599 1h4.801c0.55 0 0.6-0.447 0.6-1v-1zM11 1.6c0-0.553-0.448-0.6-1-0.6-0.553 0-1 0.047-1 0.6v3.4h2v-3.4zM9 18.4c0 0.551 0.447 0.6 1 0.6 0.552 0 1-0.049 1-0.6v-8.4h-2v8.4zM17 1.6c0-0.553-0.448-0.6-1-0.6-0.553 0-1 0.047-1 0.6v9.4h2v-9.4zM15 18.4c0 0.551 0.447 0.6 1 0.6 0.552 0 1-0.049 1-0.6v-2.4h-2v2.4z"></path>
</symbol>
<symbol id="icon-thumbs-down" viewBox="0 0 20 20">
<path d="M6.352 12.638c0.133 0.356-3.539 3.634-1.397 6.291 0.501 0.621 2.201-2.975 4.615-4.602 1.331-0.899 4.43-2.811 4.43-3.868v-6.842c0-1.271-4.914-2.617-8.648-2.617-1.369 0-3.352 8.576-3.352 9.939 0 1.367 4.221 1.343 4.352 1.699zM15 12.543c0.658 0 3-0.4 3-3.123v-4.848c0-2.721-2.342-3.021-3-3.021-0.657 0 1 0.572 1 2.26v6.373c0 1.768-1.657 2.359-1 2.359z"></path>
</symbol>
<symbol id="icon-thumbs-up" viewBox="0 0 20 20">
<path d="M13.648 7.362c-0.133-0.355 3.539-3.634 1.398-6.291-0.501-0.621-2.201 2.975-4.615 4.603-1.332 0.898-4.431 2.81-4.431 3.867v6.842c0 1.271 4.914 2.617 8.648 2.617 1.369 0 3.352-8.576 3.352-9.938 0-1.368-4.221-1.344-4.352-1.7zM5 7.457c-0.658 0-3 0.4-3 3.123v4.848c0 2.721 2.342 3.021 3 3.021 0.657 0-1-0.572-1-2.26v-6.373c0-1.768 1.657-2.359 1-2.359z"></path>
</symbol>
<symbol id="icon-quill" viewBox="0 0 32 32">
<path d="M0 32c4-12 14.469-32 32-32-8.219 6.594-12 22-18 22s-6 0-6 0l-6 10h-2z"></path>
</symbol>
<symbol id="icon-upload2" viewBox="0 0 32 32">
<path d="M0 28h32v2h-32zM32 24v2h-32v-2l4-8h8v4h8v-4h8zM7 10l9-9 9 9h-7v8h-4v-8z"></path>
</symbol>
</defs>
</svg>
