<!-- Generated by IcoMoon.io -->
<svg version="1.1" xmlns="http://www.w3.org/2000/svg" width="32" height="32" viewBox="0 0 32 32">
<title>search</title>
<path d="M13.867 3.2c-5.878 0-10.667 4.788-10.667 10.667s4.788 10.667 10.667 10.667c2.556 0 4.904-0.908 6.744-2.415l6.369 6.369c0.194 0.202 0.467 0.328 0.77 0.328 0.589 0 1.067-0.478 1.067-1.067 0-0.302-0.126-0.575-0.328-0.769l-6.369-6.369c1.507-1.84 2.415-4.187 2.415-6.744 0-5.878-4.788-10.667-10.667-10.667zM13.867 5.333c4.725 0 8.533 3.808 8.533 8.533s-3.808 8.533-8.533 8.533c-4.725 0-8.533-3.808-8.533-8.533s3.808-8.533 8.533-8.533z"></path>
</svg>
